<?xml version="1.0" encoding="UTF-8"?>
<svg id="Camada_2" data-name="Camada 2" xmlns="http://www.w3.org/2000/svg" xmlns:xlink="http://www.w3.org/1999/xlink" viewBox="0 0 338.94 99.51">
  <defs>
    <style>
      .cls-1 {
        fill: #302830;
      }

      .cls-1, .cls-2, .cls-3, .cls-4, .cls-5, .cls-6 {
        stroke-width: 0px;
      }

      .cls-2 {
        fill: #e94475;
      }

      .cls-7 {
        filter: url(#drop-shadow-4);
      }

      .cls-8 {
        filter: url(#drop-shadow-3);
      }

      .cls-9 {
        filter: url(#drop-shadow-1);
      }

      .cls-3 {
        fill: #c9cab9;
      }

      .cls-10 {
        filter: url(#drop-shadow-6);
      }

      .cls-11 {
        filter: url(#drop-shadow-5);
      }

      .cls-4 {
        fill: #8c3737;
      }

      .cls-12 {
        filter: url(#drop-shadow-2);
      }

      .cls-5 {
        fill: #0f0c0b;
      }

      .cls-6 {
        fill: #e7dcc6;
      }
    </style>
    <filter id="drop-shadow-1" filterUnits="userSpaceOnUse">
      <feOffset dx="0" dy="1"/>
      <feGaussianBlur result="blur" stdDeviation=".2"/>
      <feFlood flood-color="#312e28" flood-opacity=".5"/>
      <feComposite in2="blur" operator="in"/>
      <feComposite in="SourceGraphic"/>
    </filter>
    <filter id="drop-shadow-2" filterUnits="userSpaceOnUse">
      <feOffset dx="0" dy="1"/>
      <feGaussianBlur result="blur-2" stdDeviation=".2"/>
      <feFlood flood-color="#312e28" flood-opacity=".5"/>
      <feComposite in2="blur-2" operator="in"/>
      <feComposite in="SourceGraphic"/>
    </filter>
    <filter id="drop-shadow-3" filterUnits="userSpaceOnUse">
      <feOffset dx="0" dy="1"/>
      <feGaussianBlur result="blur-3" stdDeviation=".2"/>
      <feFlood flood-color="#312e28" flood-opacity=".5"/>
      <feComposite in2="blur-3" operator="in"/>
      <feComposite in="SourceGraphic"/>
    </filter>
    <filter id="drop-shadow-4" filterUnits="userSpaceOnUse">
      <feOffset dx="0" dy="1"/>
      <feGaussianBlur result="blur-4" stdDeviation=".2"/>
      <feFlood flood-color="#312e28" flood-opacity=".5"/>
      <feComposite in2="blur-4" operator="in"/>
      <feComposite in="SourceGraphic"/>
    </filter>
    <filter id="drop-shadow-5" filterUnits="userSpaceOnUse">
      <feOffset dx="0" dy="1"/>
      <feGaussianBlur result="blur-5" stdDeviation=".2"/>
      <feFlood flood-color="#312e28" flood-opacity=".5"/>
      <feComposite in2="blur-5" operator="in"/>
      <feComposite in="SourceGraphic"/>
    </filter>
    <filter id="drop-shadow-6" filterUnits="userSpaceOnUse">
      <feOffset dx="0" dy="1"/>
      <feGaussianBlur result="blur-6" stdDeviation=".2"/>
      <feFlood flood-color="#312e28" flood-opacity=".5"/>
      <feComposite in2="blur-6" operator="in"/>
      <feComposite in="SourceGraphic"/>
    </filter>
  </defs>
  <g id="LETTERS">
    <g class="cls-9">
      <polygon class="cls-1" points="230.16 17.04 231.28 78.14 280.11 74.85 287.21 73.29 277.7 12.92 230.16 17.04"/>
      <path class="cls-2" d="M282.74,63.46c1.04.53,1.6,1.27,1.68,2.24.16,1.88-1.15,3.57-3.92,5.08-2.77,1.51-5.38,2.36-7.82,2.57-1.92.16-3.34-.11-4.28-.79-.75-.55-1.2-1.42-1.36-2.61-.16-1.19-.32-2.46-.49-3.83-.17-1.37-.32-2.61-.44-3.72-.12-1.11-.48-2.04-1.07-2.79-.59-.74-1.12-1.17-1.6-1.29-.54-.16-1.99-.14-4.34.05-2.35.2-4.15.58-5.39,1.14-1.24.61-2.26,3.08-3.07,7.38-.21,1.04-.33,1.61-.38,1.72-1.18,4.75-4.8,7.38-10.84,7.88-2.85.24-4.33-.38-4.45-1.85-.09-1.07.28-2.27,1.1-3.62l.47-.73c3.73-7.21,6.92-16.12,9.58-26.75,2.66-10.62,3.89-17.05,3.71-19.28-.07-.86-.29-1.6-.67-2.21-.37-.61-.57-1.09-.6-1.45-.21-2.54,2.18-4.01,7.18-4.43,3.08-.26,5.78.04,8.11.9,2.32.85,3.87,2.37,4.64,4.56,3.83,16.55,6.92,27.64,9.26,33.27,1.75,4.91,3.42,7.76,5.01,8.55ZM258.85,36.85c-.11-.6-.34-.89-.69-.86-.17.01-.45.27-.81.76-1.93,5.68-2.8,9.56-2.63,11.64.05.61.31.97.79,1.08.48.11,1.36.12,2.63.01,1.28-.11,2.18-.32,2.71-.65.53-.32.77-.82.71-1.48-.84-4.43-1.63-7.66-2.39-9.69l-.33-.82Z"/>
    </g>
    <g class="cls-12">
      <polygon class="cls-1" points="0 62.56 8.33 0 45.27 4.97 35.03 71.71 .47 69.12 0 62.56"/>
      <path class="cls-3" d="M3.39,59.08l4.99,5.95,10.42.92L23.98,7.35l-5.21-.46.23-2.6,24.74,2.19-.23,2.6-4.56-.4-4.88,55.15-6.59,5.52-20.77-1.84-5.52-6.59,2.2-1.84Z"/>
    </g>
    <g class="cls-8">
      <polygon class="cls-1" points="290.67 41.14 293.93 99.51 338.94 96.12 337.93 64.23 331.77 39.74 290.67 41.14"/>
      <path class="cls-3" d="M320.7,88.25c2.11-.16,3.74-.91,4.9-2.24,1.16-1.34,1.92-3.56,2.28-6.66l8.86-.28c-.31,5.79-.93,10.61-1.87,14.47l-36.14,2.72c-1.55-8.09-2.65-16.5-3.3-25.23-.66-8.73-.88-16.25-.66-22.54l21.2-1.59c-2.03,16.37-2.68,29.97-1.97,40.82,2.36.53,4.59.71,6.7.55Z"/>
    </g>
    <g class="cls-7">
      <polygon class="cls-5" points="158.69 31.69 165.36 89.95 219.69 92.32 220.44 28.28 158.69 31.69"/>
      <path class="cls-4" d="M192.51,32.74l6.15,39.61,8.48-40.51h11.21l-12.37,55.91h-9.42l-6.62-39.09-8.64,39.09h-11.21l11.21-50.75c-3.48,1.4-6.15,3.49-8.02,6.28-1.87,2.79-2.8,6.13-2.8,10.01,0,.95.06,1.77.19,2.47.13.7.35,1.37.66,2.02.1.2.17.34.19.41.03.08.04.14.04.19-2.91,0-5.02-.59-6.34-1.76-1.32-1.17-1.98-3-1.98-5.49s.62-4.82,1.87-7.29c1.24-2.47,2.96-4.65,5.14-6.54,2.07-1.84,4.4-3.24,6.97-4.19,2.57-.95,5.25-1.42,8.05-1.42,2.02,0,3.54.09,4.55.26,1.01.18,1.91.44,2.68.78Z"/>
    </g>
    <g class="cls-11">
      <polygon class="cls-1" points="51.26 38.24 50.11 89.64 95.83 87.45 99.34 40.04 66.33 35.88 51.26 38.24"/>
      <path class="cls-6" d="M56.96,80.76c-2.53-2.15-3.8-5.55-3.8-10.19,0-3.9.8-8.19,2.39-12.86,1.59-4.67,4.18-8.71,7.78-12.14,3.59-3.42,8.19-5.14,13.79-5.14,6.95,0,10.7,3.82,11.23,11.46,1.3-.28,2.44-.98,3.45-2.08,1-1.1,1.94-2.36,2.83-3.78h2.83c-1.59,3.06-3.01,5.45-4.24,7.17-1.24,1.73-2.86,3.13-4.86,4.2-.35,5.32-1.49,9.99-3.4,14.01-1.92,4.02-4.41,7.12-7.47,9.29-3.06,2.18-6.45,3.27-10.16,3.27-4.36,0-7.81-1.07-10.34-3.23ZM76.94,71.25c1.89-3.4,3.18-7.58,3.89-12.56-1.41-.51-2.12-1.78-2.12-3.82,0-2.21.82-3.68,2.47-4.41-.12-1.81-.43-3.07-.93-3.78-.5-.71-1.31-1.06-2.43-1.06-1.94,0-3.8,1.34-5.57,4.03-1.77,2.69-3.2,5.94-4.29,9.76-1.09,3.82-1.64,7.17-1.64,10.06,0,2.72.32,4.54.97,5.48.65.93,1.83,1.4,3.54,1.4,2.18,0,4.21-1.7,6.1-5.09Z"/>
    </g>
    <g class="cls-10">
      <polygon class="cls-6" points="152.13 35.57 147.62 78.63 100.87 78.49 104.97 25.3 152.13 35.57"/>
      <path class="cls-4" d="M148.96,51.04l-.17,1.66-14.03-.81c.21-.61.36-1.33.44-2.15.13-1.21.04-2.01-.26-2.4-.3-.4-1.03-.66-2.19-.78-1.64-.17-3.48-.07-5.52.3-2.04.37-3.83.74-5.38,1.12-.46,2.1-.88,4.2-1.25,6.31-.37,2.11-.66,4.22-.89,6.35-.25,2.36-.48,4.72-.7,7.06-.22,2.34-.43,4.7-.63,7.07l-12.53-.51c.08-3.11.16-6.21.24-9.3.08-3.09.18-6.19.32-9.3.19-4.13.3-8.25.35-12.36.04-4.12.09-8.27.14-12.46,2.73.48,5.44,1.05,8.13,1.69,2.69.65,5.38,1.38,8.07,2.2l-1,6.04c1.57-1.01,3.06-1.86,4.48-2.57,1.41-.7,2.84-1.28,4.28-1.71,1.44-.43,2.94-.7,4.51-.81,1.57-.1,3.3-.06,5.18.14,1.25.13,2.54.4,3.87.81,1.32.41,2.42,1.14,3.28,2.21.43.58.75,1.42.98,2.52.23,1.1.37,2.25.44,3.45.07,1.2.08,2.37.03,3.51-.05,1.14-.11,2.05-.18,2.73Z"/>
    </g>
  </g>
</svg>