<?xml version="1.0" encoding="UTF-8"?>
<svg id="Camada_2" data-name="Camada 2" xmlns="http://www.w3.org/2000/svg" xmlns:xlink="http://www.w3.org/1999/xlink" viewBox="0 0 338.94 333.31">
  <defs>
    <style>
      .cls-1 {
        fill: #302830;
      }

      .cls-1, .cls-2, .cls-3, .cls-4, .cls-5, .cls-6, .cls-7, .cls-8, .cls-9, .cls-10, .cls-11 {
        stroke-width: 0px;
      }

      .cls-12 {
        letter-spacing: 0em;
      }

      .cls-2 {
        fill: #e94475;
      }

      .cls-13 {
        filter: url(#drop-shadow-4);
      }

      .cls-14 {
        letter-spacing: -.02em;
      }

      .cls-15 {
        filter: url(#drop-shadow-3);
      }

      .cls-16 {
        filter: url(#drop-shadow-1);
      }

      .cls-3 {
        fill: #c9cab9;
      }

      .cls-4 {
        fill: #c91718;
      }

      .cls-17 {
        fill: none;
        stroke: #1d1d1b;
        stroke-linecap: round;
        stroke-miterlimit: 10;
      }

      .cls-18 {
        filter: url(#drop-shadow-6);
      }

      .cls-5 {
        fill: #010101;
      }

      .cls-19 {
        letter-spacing: 0em;
      }

      .cls-6 {
        fill: #389837;
      }

      .cls-20 {
        filter: url(#drop-shadow-5);
      }

      .cls-7 {
        fill: #8c3737;
      }

      .cls-21 {
        font-family: Nexa-ExtraLight, Nexa;
        font-size: 23.67px;
        font-weight: 200;
      }

      .cls-21, .cls-8 {
        fill: #1d1d1b;
      }

      .cls-22 {
        filter: url(#drop-shadow-2);
      }

      .cls-9 {
        fill: #389937;
      }

      .cls-10 {
        fill: #0f0c0b;
      }

      .cls-11 {
        fill: #e7dcc6;
      }
    </style>
    <filter id="drop-shadow-1" filterUnits="userSpaceOnUse">
      <feOffset dx="0" dy="1"/>
      <feGaussianBlur result="blur" stdDeviation=".2"/>
      <feFlood flood-color="#312e28" flood-opacity=".5"/>
      <feComposite in2="blur" operator="in"/>
      <feComposite in="SourceGraphic"/>
    </filter>
    <filter id="drop-shadow-2" filterUnits="userSpaceOnUse">
      <feOffset dx="0" dy="1"/>
      <feGaussianBlur result="blur-2" stdDeviation=".2"/>
      <feFlood flood-color="#312e28" flood-opacity=".5"/>
      <feComposite in2="blur-2" operator="in"/>
      <feComposite in="SourceGraphic"/>
    </filter>
    <filter id="drop-shadow-3" filterUnits="userSpaceOnUse">
      <feOffset dx="0" dy="1"/>
      <feGaussianBlur result="blur-3" stdDeviation=".2"/>
      <feFlood flood-color="#312e28" flood-opacity=".5"/>
      <feComposite in2="blur-3" operator="in"/>
      <feComposite in="SourceGraphic"/>
    </filter>
    <filter id="drop-shadow-4" filterUnits="userSpaceOnUse">
      <feOffset dx="0" dy="1"/>
      <feGaussianBlur result="blur-4" stdDeviation=".2"/>
      <feFlood flood-color="#312e28" flood-opacity=".5"/>
      <feComposite in2="blur-4" operator="in"/>
      <feComposite in="SourceGraphic"/>
    </filter>
    <filter id="drop-shadow-5" filterUnits="userSpaceOnUse">
      <feOffset dx="0" dy="1"/>
      <feGaussianBlur result="blur-5" stdDeviation=".2"/>
      <feFlood flood-color="#312e28" flood-opacity=".5"/>
      <feComposite in2="blur-5" operator="in"/>
      <feComposite in="SourceGraphic"/>
    </filter>
    <filter id="drop-shadow-6" filterUnits="userSpaceOnUse">
      <feOffset dx="0" dy="1"/>
      <feGaussianBlur result="blur-6" stdDeviation=".2"/>
      <feFlood flood-color="#312e28" flood-opacity=".5"/>
      <feComposite in2="blur-6" operator="in"/>
      <feComposite in="SourceGraphic"/>
    </filter>
  </defs>
  <g id="LETTERS">
    <g class="cls-16">
      <polygon class="cls-1" points="230.16 17.04 231.28 78.14 280.11 74.85 287.21 73.29 277.7 12.92 230.16 17.04"/>
      <path class="cls-2" d="M282.74,63.46c1.04.53,1.6,1.27,1.68,2.24.16,1.88-1.15,3.57-3.92,5.08-2.77,1.51-5.38,2.36-7.82,2.57-1.92.16-3.34-.11-4.28-.79-.75-.55-1.2-1.42-1.36-2.61-.16-1.19-.32-2.46-.49-3.83-.17-1.37-.32-2.61-.44-3.72-.12-1.11-.48-2.04-1.07-2.79-.59-.74-1.12-1.17-1.6-1.29-.54-.16-1.99-.14-4.34.05-2.35.2-4.15.58-5.39,1.14-1.24.61-2.26,3.08-3.07,7.38-.21,1.04-.33,1.61-.38,1.72-1.18,4.75-4.8,7.38-10.84,7.88-2.85.24-4.33-.38-4.45-1.85-.09-1.07.28-2.27,1.1-3.62l.47-.73c3.73-7.21,6.92-16.12,9.58-26.75,2.66-10.62,3.89-17.05,3.71-19.28-.07-.86-.29-1.6-.67-2.21-.37-.61-.57-1.09-.6-1.45-.21-2.54,2.18-4.01,7.18-4.43,3.08-.26,5.78.04,8.11.9,2.32.85,3.87,2.37,4.64,4.56,3.83,16.55,6.92,27.64,9.26,33.27,1.75,4.91,3.42,7.76,5.01,8.55ZM258.85,36.85c-.11-.6-.34-.89-.69-.86-.17.01-.45.27-.81.76-1.93,5.68-2.8,9.56-2.63,11.64.05.61.31.97.79,1.08.48.11,1.36.12,2.63.01,1.28-.11,2.18-.32,2.71-.65.53-.32.77-.82.71-1.48-.84-4.43-1.63-7.66-2.39-9.69l-.33-.82Z"/>
    </g>
    <g class="cls-22">
      <polygon class="cls-1" points="0 62.56 8.33 0 45.27 4.97 35.03 71.71 .47 69.12 0 62.56"/>
      <path class="cls-3" d="M3.39,59.08l4.99,5.95,10.42.92L23.98,7.35l-5.21-.46.23-2.6,24.74,2.19-.23,2.6-4.56-.4-4.88,55.15-6.59,5.52-20.77-1.84-5.52-6.59,2.2-1.84Z"/>
    </g>
    <g class="cls-15">
      <polygon class="cls-1" points="290.67 41.14 293.93 99.51 338.94 96.12 337.93 64.23 331.77 39.74 290.67 41.14"/>
      <path class="cls-3" d="M320.7,88.25c2.11-.16,3.74-.91,4.9-2.24,1.16-1.34,1.92-3.56,2.28-6.66l8.86-.28c-.31,5.79-.93,10.61-1.87,14.47l-36.14,2.72c-1.55-8.09-2.65-16.5-3.3-25.23-.66-8.73-.88-16.25-.66-22.54l21.2-1.59c-2.03,16.37-2.68,29.97-1.97,40.82,2.36.53,4.59.71,6.7.55Z"/>
    </g>
    <g class="cls-13">
      <polygon class="cls-10" points="158.69 31.69 165.36 89.95 219.69 92.32 220.44 28.28 158.69 31.69"/>
      <path class="cls-7" d="M192.51,32.74l6.15,39.61,8.48-40.51h11.21l-12.37,55.91h-9.42l-6.62-39.09-8.64,39.09h-11.21l11.21-50.75c-3.48,1.4-6.15,3.49-8.02,6.28-1.87,2.79-2.8,6.13-2.8,10.01,0,.95.06,1.77.19,2.47.13.7.35,1.37.66,2.02.1.2.17.34.19.41.03.08.04.14.04.19-2.91,0-5.02-.59-6.34-1.76-1.32-1.17-1.98-3-1.98-5.49s.62-4.82,1.87-7.29c1.24-2.47,2.96-4.65,5.14-6.54,2.07-1.84,4.4-3.24,6.97-4.19,2.57-.95,5.25-1.42,8.05-1.42,2.02,0,3.54.09,4.55.26,1.01.18,1.91.44,2.68.78Z"/>
    </g>
    <g class="cls-20">
      <polygon class="cls-1" points="51.26 38.24 50.11 89.64 95.83 87.45 99.34 40.04 66.33 35.88 51.26 38.24"/>
      <path class="cls-11" d="M56.96,80.76c-2.53-2.15-3.8-5.55-3.8-10.19,0-3.9.8-8.19,2.39-12.86,1.59-4.67,4.18-8.71,7.78-12.14,3.59-3.42,8.19-5.14,13.79-5.14,6.95,0,10.7,3.82,11.23,11.46,1.3-.28,2.44-.98,3.45-2.08,1-1.1,1.94-2.36,2.83-3.78h2.83c-1.59,3.06-3.01,5.45-4.24,7.17-1.24,1.73-2.86,3.13-4.86,4.2-.35,5.32-1.49,9.99-3.4,14.01-1.92,4.02-4.41,7.12-7.47,9.29-3.06,2.18-6.45,3.27-10.16,3.27-4.36,0-7.81-1.07-10.34-3.23ZM76.94,71.25c1.89-3.4,3.18-7.58,3.89-12.56-1.41-.51-2.12-1.78-2.12-3.82,0-2.21.82-3.68,2.47-4.41-.12-1.81-.43-3.07-.93-3.78-.5-.71-1.31-1.06-2.43-1.06-1.94,0-3.8,1.34-5.57,4.03-1.77,2.69-3.2,5.94-4.29,9.76-1.09,3.82-1.64,7.17-1.64,10.06,0,2.72.32,4.54.97,5.48.65.93,1.83,1.4,3.54,1.4,2.18,0,4.21-1.7,6.1-5.09Z"/>
    </g>
    <g class="cls-18">
      <polygon class="cls-11" points="152.13 35.57 147.62 78.63 100.87 78.49 104.97 25.3 152.13 35.57"/>
      <path class="cls-7" d="M148.96,51.04l-.17,1.66-14.03-.81c.21-.61.36-1.33.44-2.15.13-1.21.04-2.01-.26-2.4-.3-.4-1.03-.66-2.19-.78-1.64-.17-3.48-.07-5.52.3-2.04.37-3.83.74-5.38,1.12-.46,2.1-.88,4.2-1.25,6.31-.37,2.11-.66,4.22-.89,6.35-.25,2.36-.48,4.72-.7,7.06-.22,2.34-.43,4.7-.63,7.07l-12.53-.51c.08-3.11.16-6.21.24-9.3.08-3.09.18-6.19.32-9.3.19-4.13.3-8.25.35-12.36.04-4.12.09-8.27.14-12.46,2.73.48,5.44,1.05,8.13,1.69,2.69.65,5.38,1.38,8.07,2.2l-1,6.04c1.57-1.01,3.06-1.86,4.48-2.57,1.41-.7,2.84-1.28,4.28-1.71,1.44-.43,2.94-.7,4.51-.81,1.57-.1,3.3-.06,5.18.14,1.25.13,2.54.4,3.87.81,1.32.41,2.42,1.14,3.28,2.21.43.58.75,1.42.98,2.52.23,1.1.37,2.25.44,3.45.07,1.2.08,2.37.03,3.51-.05,1.14-.11,2.05-.18,2.73Z"/>
    </g>
  </g>
  <g id="IF">
    <g>
      <path class="cls-8" d="M129.19,113.16c-.36,1.58,1.13,1.1,1.71,1.35,7.55,3.2,12.22,8.7,13.59,16.85,1.71,10.11-4.5,20.21-14.41,23.51-9.71,3.23-20.64-1.13-25.44-10.16-6.14-11.53-.93-25.37,11.31-30.21.58-.23,2.08.25,1.73-1.34h1.05c.52.91,1.05.47,1.57,0h6.27c.35.36.7.84,1.05,0h1.57Z"/>
      <path class="cls-8" d="M120.31,113.16c-.52.47-1.05.91-1.57,0h1.57Z"/>
      <path class="cls-8" d="M127.63,113.16c-.35.84-.7.36-1.05,0h1.05Z"/>
      <path class="cls-8" d="M235.31,227.28c0,4.87.02,9.75,0,14.62-.02,3.25-1.31,4.54-4.6,4.54-9.75.02-19.5.01-29.24,0-3.37,0-4.69-1.21-4.7-4.48-.04-9.92-.04-19.85,0-29.77.01-2.98,1.36-4.29,4.37-4.3,9.92-.04,19.84-.04,29.77,0,3.13.01,4.39,1.34,4.4,4.5.03,4.96,0,9.92,0,14.88Z"/>
      <path class="cls-8" d="M123.25,199.94c-4.87,0-9.75.02-14.62,0-3.11-.02-4.49-1.34-4.5-4.41-.03-9.92-.03-19.84,0-29.77.01-2.91,1.39-4.34,4.34-4.36,10.01-.05,20.02-.05,30.03,0,2.86.02,4.26,1.53,4.27,4.46.04,9.92.04,19.84,0,29.77-.01,2.88-1.5,4.29-4.37,4.31-5.05.03-10.1,0-15.14,0Z"/>
      <path class="cls-8" d="M169.8,199.94c-4.96,0-9.92.02-14.88,0-2.92-.02-4.28-1.38-4.29-4.34-.03-9.92-.03-19.85,0-29.77,0-2.96,1.34-4.41,4.26-4.43,10.01-.05,20.02-.05,30.03,0,2.87.01,4.34,1.5,4.36,4.39.05,9.92.05,19.85,0,29.77-.01,3-1.52,4.37-4.59,4.38-4.96.02-9.92,0-14.88,0Z"/>
      <path class="cls-8" d="M235.31,134.58c0,4.96.02,9.92,0,14.89-.02,2.9-1.4,4.42-4.26,4.44-10.01.05-20.02.05-30.03,0-2.73-.01-4.22-1.49-4.24-4.23-.06-10.1-.06-20.2,0-30.29.02-2.76,1.48-4.11,4.29-4.12,10.01-.03,20.02-.03,30.03,0,2.86.01,4.2,1.46,4.21,4.43.03,4.96,0,9.92,0,14.89Z"/>
      <path class="cls-8" d="M123.45,246.46c-4.96,0-9.92.02-14.89,0-3.04-.02-4.43-1.42-4.44-4.5-.02-9.84-.02-19.68,0-29.51,0-3.13,1.31-4.52,4.41-4.53,9.92-.04,19.85-.04,29.77,0,3.07.01,4.46,1.43,4.47,4.5.03,9.84.03,19.68,0,29.51-.01,3.16-1.46,4.52-4.7,4.53-4.87.02-9.75,0-14.62,0Z"/>
      <path class="cls-8" d="M169.69,246.46c-4.87,0-9.75.02-14.62,0-3.06-.02-4.43-1.39-4.44-4.47-.02-9.84-.02-19.67,0-29.51,0-3.16,1.29-4.55,4.37-4.56,9.92-.04,19.85-.04,29.77,0,3.05.01,4.49,1.43,4.51,4.49.04,9.84.04,19.67,0,29.51-.01,3.15-1.49,4.53-4.7,4.55-4.96.02-9.92,0-14.88,0Z"/>
      <path class="cls-8" d="M169.86,292.97c-4.88,0-9.75.03-14.63,0-3.24-.02-4.6-1.39-4.6-4.61-.02-9.84-.02-19.68,0-29.52,0-3.01,1.42-4.52,4.47-4.54,9.84-.06,19.68-.06,29.52,0,3.17.02,4.65,1.55,4.66,4.68.03,9.84.04,19.68,0,29.52-.01,3.03-1.49,4.44-4.53,4.47-4.96.04-9.93,0-14.89.01Z"/>
      <path class="cls-8" d="M123.36,292.97c-4.88,0-9.75.02-14.63,0-3.23-.02-4.61-1.39-4.62-4.61-.02-9.84-.03-19.68,0-29.52,0-2.98,1.48-4.52,4.5-4.54,9.84-.05,19.68-.05,29.52,0,3.17.02,4.63,1.54,4.63,4.68.03,9.75.02,19.51,0,29.26,0,3.34-1.41,4.72-4.78,4.73-4.88.02-9.75,0-14.63,0Z"/>
      <path class="cls-8" d="M170.22,115.25c4.79,0,9.58-.02,14.37,0,3.17.02,4.68,1.44,4.69,4.58.04,9.84.04,19.68,0,29.52-.01,3.01-1.51,4.54-4.5,4.55-9.93.05-19.85.05-29.78,0-2.89-.01-4.35-1.5-4.36-4.36-.03-10.01-.03-20.03,0-30.04,0-2.84,1.48-4.23,4.43-4.25,5.05-.04,10.1,0,15.15-.01Z"/>
    </g>
    <g>
      <path class="cls-4" d="M129.19,109.16c-.36,1.58,1.13,1.1,1.71,1.35,7.55,3.2,12.22,8.7,13.59,16.85,1.71,10.11-4.5,20.21-14.41,23.51-9.71,3.23-20.64-1.13-25.44-10.16-6.14-11.53-.93-25.37,11.31-30.21.58-.23,2.08.25,1.73-1.34h1.05c.52.91,1.05.47,1.57,0h6.27c.35.36.7.84,1.05,0h1.57Z"/>
      <path class="cls-5" d="M120.31,109.16c-.52.47-1.05.91-1.57,0h1.57Z"/>
      <path class="cls-5" d="M127.63,109.16c-.35.84-.7.36-1.05,0h1.05Z"/>
      <path class="cls-6" d="M235.31,223.28c0,4.87.02,9.75,0,14.62-.02,3.25-1.31,4.54-4.6,4.54-9.75.02-19.5.01-29.24,0-3.37,0-4.69-1.21-4.7-4.48-.04-9.92-.04-19.85,0-29.77.01-2.98,1.36-4.29,4.37-4.3,9.92-.04,19.84-.04,29.77,0,3.13.01,4.39,1.34,4.4,4.5.03,4.96,0,9.92,0,14.88Z"/>
      <path class="cls-6" d="M123.25,195.94c-4.87,0-9.75.02-14.62,0-3.11-.02-4.49-1.34-4.5-4.41-.03-9.92-.03-19.84,0-29.77.01-2.91,1.39-4.34,4.34-4.36,10.01-.05,20.02-.05,30.03,0,2.86.02,4.26,1.53,4.27,4.46.04,9.92.04,19.84,0,29.77-.01,2.88-1.5,4.29-4.37,4.31-5.05.03-10.1,0-15.14,0Z"/>
      <path class="cls-6" d="M169.8,195.94c-4.96,0-9.92.02-14.88,0-2.92-.02-4.28-1.38-4.29-4.34-.03-9.92-.03-19.85,0-29.77,0-2.96,1.34-4.41,4.26-4.43,10.01-.05,20.02-.05,30.03,0,2.87.01,4.34,1.5,4.36,4.39.05,9.92.05,19.85,0,29.77-.01,3-1.52,4.37-4.59,4.38-4.96.02-9.92,0-14.88,0Z"/>
      <path class="cls-6" d="M235.31,130.58c0,4.96.02,9.92,0,14.89-.02,2.9-1.4,4.42-4.26,4.44-10.01.05-20.02.05-30.03,0-2.73-.01-4.22-1.49-4.24-4.23-.06-10.1-.06-20.2,0-30.29.02-2.76,1.48-4.11,4.29-4.12,10.01-.03,20.02-.03,30.03,0,2.86.01,4.2,1.46,4.21,4.43.03,4.96,0,9.92,0,14.89Z"/>
      <path class="cls-6" d="M123.45,242.46c-4.96,0-9.92.02-14.89,0-3.04-.02-4.43-1.42-4.44-4.5-.02-9.84-.02-19.68,0-29.51,0-3.13,1.31-4.52,4.41-4.53,9.92-.04,19.85-.04,29.77,0,3.07.01,4.46,1.43,4.47,4.5.03,9.84.03,19.68,0,29.51-.01,3.16-1.46,4.52-4.7,4.53-4.87.02-9.75,0-14.62,0Z"/>
      <path class="cls-6" d="M169.69,242.46c-4.87,0-9.75.02-14.62,0-3.06-.02-4.43-1.39-4.44-4.47-.02-9.84-.02-19.67,0-29.51,0-3.16,1.29-4.55,4.37-4.56,9.92-.04,19.85-.04,29.77,0,3.05.01,4.49,1.43,4.51,4.49.04,9.84.04,19.67,0,29.51-.01,3.15-1.49,4.53-4.7,4.55-4.96.02-9.92,0-14.88,0Z"/>
      <path class="cls-9" d="M169.86,288.97c-4.88,0-9.75.03-14.63,0-3.24-.02-4.6-1.39-4.6-4.61-.02-9.84-.02-19.68,0-29.52,0-3.01,1.42-4.52,4.47-4.54,9.84-.06,19.68-.06,29.52,0,3.17.02,4.65,1.55,4.66,4.68.03,9.84.04,19.68,0,29.52-.01,3.03-1.49,4.44-4.53,4.47-4.96.04-9.93,0-14.89.01Z"/>
      <path class="cls-9" d="M123.36,288.97c-4.88,0-9.75.02-14.63,0-3.23-.02-4.61-1.39-4.62-4.61-.02-9.84-.03-19.68,0-29.52,0-2.98,1.48-4.52,4.5-4.54,9.84-.05,19.68-.05,29.52,0,3.17.02,4.63,1.54,4.63,4.68.03,9.75.02,19.51,0,29.26,0,3.34-1.41,4.72-4.78,4.73-4.88.02-9.75,0-14.63,0Z"/>
      <path class="cls-9" d="M170.22,111.25c4.79,0,9.58-.02,14.37,0,3.17.02,4.68,1.44,4.69,4.58.04,9.84.04,19.68,0,29.52-.01,3.01-1.51,4.54-4.5,4.55-9.93.05-19.85.05-29.78,0-2.89-.01-4.35-1.5-4.36-4.36-.03-10.01-.03-20.03,0-30.04,0-2.84,1.48-4.23,4.43-4.25,5.05-.04,10.1,0,15.15-.01Z"/>
    </g>
    <!--
    <text class="cls-21" transform="translate(40.16 326.25)"><tspan x="0" y="0">São </tspan><tspan class="cls-14" x="51.11" y="0">R</tspan><tspan x="67.01" y="0">aimundo </tspan><tspan class="cls-19" x="172.77" y="0">N</tspan><tspan x="190.36" y="0">ona</tspan><tspan class="cls-12" x="233.89" y="0">t</tspan><tspan x="243.08" y="0">o</tspan></text>
    <line class="cls-17" x1="10.96" y1="318.88" x2="35.47" y2="318.88"/>
    <line class="cls-17" x1="301.52" y1="318.88" x2="326.03" y2="318.88"/>
    -->
  </g>
</svg>